<svg xmlns="http://www.w3.org/2000/svg" viewBox="0 0 128 128" fill="none" stroke-linecap="round" stroke-linejoin="round"><title>piromante</title>
<path d="M62 10 C74 31 46 35 56 53 C60 62 67 50 71 43 C78 58 92 57 95 77 C100 100 83 114 62 115 C38 115 20 99 26 79 C29 67 37 61 34 48 C43 52 45 61 46 68 C54 53 40 30 62 10 Z" stroke="#e3e5e5" stroke-width="1.7"/>
<path d="M63 25 C61 42 52 44 59 57 M34 79 C29 95 43 106 54 108 M70 107 C86 105 95 88 89 76" stroke="#e3e5e5" stroke-width="1.25"/>
<path d="M63 64 C67 77 55 83 59 91 C61 96 67 92 71 85 C84 99 71 109 61 109 C46 109 42 97 46 87 C50 78 58 74 63 64 Z" stroke="#e3e5e5" stroke-width="1.25"/>
<path d="M22 57 C18 49 22 44 18 38 M105 59 C109 50 105 46 110 41 M41 19 L38 30" stroke="#b9bfc2" stroke-width="1.25"/>
</svg>
